<?xml version="1.0" standalone="no"?>
<!DOCTYPE svg PUBLIC "-//W3C//DTD SVG 20010904//EN"
 "http://www.w3.org/TR/2001/REC-SVG-20010904/DTD/svg10.dtd">
<svg version="1.0" xmlns="http://www.w3.org/2000/svg"
 width="925.000000pt" height="925.000000pt" viewBox="0 0 925.000000 925.000000"
 preserveAspectRatio="xMidYMid meet">
<metadata>
Created by potrace 1.11, written by Peter Selinger 2001-2013
</metadata>
<g transform="translate(0.000000,925.000000) scale(0.100000,-0.100000)"
fill="#000000" stroke="none">
<path d="M780 9239 c-19 -5 -41 -6 -47 -4 -7 2 -13 0 -13 -5 0 -5 -7 -7 -15
-4 -8 4 -15 2 -15 -4 0 -6 -8 -9 -17 -7 -10 1 -22 -1 -28 -5 -5 -4 -37 -17
-70 -30 -33 -13 -77 -34 -97 -47 -21 -13 -41 -23 -46 -23 -4 0 -18 -9 -30 -20
-12 -12 -22 -19 -22 -16 0 16 -188 -175 -217 -221 -15 -23 -31 -43 -36 -43 -4
0 -5 -4 -2 -10 3 -5 1 -10 -5 -10 -6 0 -8 -4 -5 -10 3 -5 2 -10 -3 -10 -9 0
-25 -37 -23 -52 1 -5 -3 -8 -8 -8 -8 0 -25 -37 -29 -63 -1 -4 -9 -24 -18 -45
-8 -20 -19 -46 -22 -57 -8 -24 -9 -3569 -1 -3605 3 -14 13 -41 22 -60 8 -19
21 -52 28 -72 7 -21 17 -38 21 -38 4 0 7 -3 6 -8 -5 -16 73 -141 117 -189 68
-73 127 -133 130 -133 3 0 28 -18 57 -40 29 -22 59 -40 66 -40 6 0 12 -4 12
-10 0 -5 9 -10 19 -10 11 0 21 -4 23 -8 3 -8 158 -72 183 -76 6 -1 16 -6 24
-10 10 -7 12 -5 6 3 -6 10 -3 11 12 3 17 -10 90 -19 201 -27 17 -1 32 2 32 7
0 5 6 6 13 1 17 -11 67 -12 67 -1 0 5 6 6 12 2 17 -11 388 -11 388 -1 0 5 6 5
13 0 17 -11 67 -12 67 -1 0 5 6 6 12 2 17 -11 388 -11 388 -1 0 5 6 5 13 0 17
-11 67 -12 67 -1 0 5 6 6 12 2 17 -11 388 -11 388 -1 0 5 6 5 13 0 17 -11 67
-12 67 -1 0 5 6 6 12 2 17 -11 388 -11 388 -1 0 5 6 5 13 0 17 -11 67 -12 67
-1 0 5 6 6 12 2 17 -11 388 -11 388 -1 0 5 6 5 13 0 17 -11 67 -12 67 -1 0 5
6 6 12 2 17 -11 388 -11 388 -1 0 5 6 5 13 0 18 -11 67 -12 67 0 0 6 5 6 13 0
6 -5 39 -8 72 -7 33 1 84 4 113 5 29 1 52 7 52 13 0 6 5 4 10 -4 8 -12 10 -12
10 -1 0 11 3 11 15 1 9 -8 12 -18 6 -29 -4 -9 -9 -41 -10 -71 -2 -30 -5 -58
-7 -62 -2 -3 2 -9 8 -11 7 -3 9 -6 3 -6 -11 -1 -12 -3059 -1 -3166 3 -33 8
-71 12 -85 3 -14 7 -34 9 -45 2 -11 4 -20 5 -20 1 0 3 -7 5 -15 4 -23 68 -184
75 -190 3 -3 12 -20 19 -38 8 -17 17 -32 22 -32 5 0 9 -7 9 -15 0 -8 5 -15 10
-15 6 0 10 -5 10 -10 0 -10 7 -21 40 -59 64 -74 89 -98 94 -93 3 3 6 0 6 -5 0
-15 132 -113 197 -146 71 -36 180 -77 187 -70 3 4 6 0 6 -7 0 -7 2 -11 6 -8 3
3 22 2 42 -3 66 -16 163 -21 405 -23 152 -1 237 3 237 9 0 6 4 4 9 -3 11 -17
21 -17 32 0 5 7 9 9 9 3 0 -6 38 -10 92 -10 51 0 96 5 100 10 5 6 8 6 8 -1 0
-14 30 -14 30 0 0 7 3 7 8 1 4 -6 182 -10 497 -10 315 0 493 4 497 10 5 6 8 6
8 -1 0 -14 30 -14 30 0 0 7 3 7 8 1 4 -5 49 -10 100 -10 54 0 92 4 92 10 0 6
4 4 9 -3 11 -17 21 -17 32 0 5 7 9 9 9 3 0 -7 189 -10 547 -9 518 1 713 7 737
21 5 4 22 8 36 8 14 1 36 7 50 13 14 5 50 20 80 32 30 12 60 26 66 31 6 5 13
7 16 4 3 -3 16 5 30 17 14 13 31 24 37 26 19 4 71 45 71 54 0 5 5 6 10 3 6 -3
13 1 16 9 3 9 13 16 21 16 8 0 11 5 8 10 -3 6 1 10 9 10 9 0 16 3 16 8 1 4 25
34 55 67 31 33 58 68 61 77 3 10 10 18 15 18 5 0 9 7 9 15 0 8 4 15 9 15 5 0
11 8 15 18 3 9 10 24 15 32 21 34 61 120 55 120 -4 0 -1 7 6 15 7 8 10 15 7
15 -4 0 2 19 12 43 10 23 17 50 15 60 -1 9 1 17 5 17 4 0 8 10 8 23 1 12 5 49
9 82 8 77 9 3166 0 3260 -3 39 -10 87 -15 108 -5 20 -7 37 -4 37 3 0 0 7 -7
15 -6 8 -9 19 -6 24 4 5 1 13 -5 16 -5 4 -8 13 -5 21 3 8 2 14 -3 14 -5 0 -12
11 -15 25 -9 35 -58 137 -73 153 -7 8 -11 18 -8 23 4 5 2 9 -3 9 -5 0 -14 11
-20 25 -6 14 -8 25 -3 25 5 0 14 14 21 30 7 17 17 30 22 30 5 0 7 4 4 9 -4 5
-1 11 4 13 6 2 12 10 14 18 2 8 11 33 21 55 34 77 62 161 60 183 -1 12 1 22 5
22 4 0 7 6 7 13 1 6 4 41 8 77 10 81 13 3210 3 3216 -3 2 -4 12 -1 22 4 15 -5
80 -22 165 -22 109 -104 286 -162 352 -7 7 -13 16 -13 19 0 8 -65 79 -109 120
-19 17 -42 38 -51 47 -26 25 -107 79 -118 79 -6 0 -12 4 -14 8 -4 10 -177 85
-195 85 -7 0 -13 3 -13 6 0 3 -10 7 -22 8 -51 5 -75 10 -84 15 -13 8 -3396 8
-3409 0 -5 -4 -19 -7 -30 -9 -21 -2 -58 -10 -62 -13 -2 -2 -11 -3 -20 -5 -10
-1 -31 -7 -46 -13 -15 -7 -39 -15 -52 -18 -14 -3 -25 -10 -25 -16 0 -5 -4 -6
-10 -3 -5 3 -10 1 -10 -6 0 -7 -3 -9 -7 -6 -3 4 -15 0 -25 -10 -10 -9 -18 -13
-18 -9 0 3 -23 -9 -50 -28 -47 -32 -73 -37 -90 -16 -13 15 -110 72 -110 65 0
-3 -17 4 -37 15 -54 27 -95 43 -119 45 -11 1 -27 6 -34 10 -8 5 -25 11 -39 13
-51 8 -3417 9 -3451 1z"/>
</g>
</svg>
